<?xml version="1.0" standalone="no"?>
<!DOCTYPE svg PUBLIC "-//W3C//DTD SVG 20010904//EN"
 "http://www.w3.org/TR/2001/REC-SVG-20010904/DTD/svg10.dtd">
<svg version="1.0" xmlns="http://www.w3.org/2000/svg"
 width="1920.000000pt" height="1440.000000pt" viewBox="0 0 1920.000000 1440.000000"
 preserveAspectRatio="xMidYMid meet">
<metadata>
Created by potrace 1.16, written by Peter Selinger 2001-2019
</metadata>
<g transform="translate(0.000000,1440.000000) scale(0.100000,-0.100000)"
fill="#000000" stroke="none">
<path d="M9447 10775 c-260 -42 -466 -160 -523 -299 -14 -33 -25 -46 -39 -46
-33 0 -118 -45 -154 -81 -82 -81 -108 -218 -76 -391 22 -120 85 -303 104 -303
10 0 22 -28 37 -88 12 -49 25 -91 28 -94 3 -3 34 23 68 58 69 71 133 186 164
297 15 55 22 67 57 89 130 82 259 88 507 23 135 -35 182 -43 260 -44 52 -1
106 2 120 6 23 7 27 2 54 -63 34 -84 109 -199 166 -254 47 -45 54 -42 65 34 4
25 13 53 21 61 40 45 68 367 44 503 -29 166 -95 294 -209 407 -85 84 -174 140
-271 171 -86 28 -298 34 -423 14z"/>
<path d="M12141 9979 c-45 -18 -82 -51 -103 -92 -19 -36 -23 -63 -26 -179 l-4
-138 1257 0 1257 0 -4 138 c-4 160 -20 203 -90 249 l-42 28 -1110 2 c-683 1
-1120 -2 -1135 -8z m934 -154 c31 -30 31 -47 1 -82 l-24 -28 -389 -3 c-213 -2
-403 0 -421 3 -69 13 -94 76 -46 114 26 20 37 21 441 21 l414 0 24 -25z m998
8 c41 -47 15 -113 -45 -113 -40 0 -68 25 -68 62 0 57 76 91 113 51z m270 -14
c33 -45 1 -99 -58 -99 -59 0 -85 65 -44 109 28 30 75 25 102 -10z"/>
<path d="M9301 9496 c-19 -22 -23 -78 -9 -106 17 -31 48 -38 65 -14 16 21 17
88 3 115 -12 22 -43 25 -59 5z"/>
<path d="M9791 9496 c-34 -40 -16 -128 26 -134 26 -4 45 27 45 73 0 63 -41 98
-71 61z"/>
<path d="M5279 8635 c-134 -25 -129 -21 -129 -119 l0 -84 -65 -36 c-36 -20
-70 -36 -74 -36 -5 0 -39 18 -77 40 -37 21 -71 37 -76 34 -5 -3 -38 -40 -74
-82 -107 -126 -214 -368 -173 -393 8 -4 39 -23 69 -42 l55 -33 3 -81 3 -82
-71 -41 c-40 -25 -70 -49 -70 -58 0 -35 44 -153 84 -226 45 -83 148 -212 176
-221 10 -3 45 10 86 34 67 39 70 40 94 24 14 -10 44 -28 68 -41 l42 -24 0 -83
0 -84 53 -16 c122 -37 305 -37 442 -2 l50 13 3 87 3 87 47 24 c26 14 56 31 67
39 18 14 26 12 98 -26 l78 -42 58 63 c91 100 173 251 200 371 l8 37 -74 43
-74 43 3 81 3 81 70 41 c79 47 77 40 39 155 -33 102 -98 211 -175 293 l-64 67
-68 -40 c-38 -22 -72 -40 -76 -40 -5 0 -38 16 -74 37 l-66 36 -3 86 -3 86 -70
18 c-97 25 -252 30 -346 12z m326 -469 c321 -159 297 -621 -38 -748 -196 -75
-420 17 -510 210 -60 130 -47 290 34 409 50 72 149 141 236 163 21 5 76 8 121
6 72 -3 94 -9 157 -40z"/>
<path d="M7654 5921 c-210 -80 -439 -214 -568 -332 -84 -78 -162 -192 -184
-273 -13 -47 -17 -103 -17 -241 0 -272 18 -316 185 -447 238 -187 703 -438
1171 -631 l37 -15 -15 -53 c-20 -76 -12 -254 16 -333 68 -191 135 -229 401
-228 275 1 582 67 803 172 l64 31 114 -30 c132 -36 288 -61 375 -61 164 0 275
107 302 292 l7 50 210 72 c515 177 1245 504 1607 721 151 90 189 124 218 202
31 81 38 254 16 380 -22 125 -84 286 -131 341 -84 96 -325 231 -595 330 -192
71 -177 68 -185 30 -11 -49 -49 -119 -86 -156 -60 -61 -227 -147 -382 -198
-29 -9 -55 -19 -59 -23 -4 -3 -15 -124 -24 -269 l-18 -262 -1340 2 -1341 3 2
45 c5 73 -23 404 -33 407 -6 2 -39 20 -74 41 -135 78 -268 244 -331 409 -13
35 -28 63 -34 63 -5 -1 -55 -18 -111 -39z m1821 -1658 c26 -174 70 -336 123
-457 31 -70 27 -78 -49 -117 -153 -79 -456 -149 -649 -149 -96 0 -103 5 -89
55 21 74 -6 267 -57 421 -14 42 -24 77 -22 79 18 17 119 68 183 92 140 54 391
109 512 112 41 1 42 0 48 -36z"/>
</g>
</svg>
