<?xml version="1.0" standalone="no"?>
<!DOCTYPE svg PUBLIC "-//W3C//DTD SVG 20010904//EN"
 "http://www.w3.org/TR/2001/REC-SVG-20010904/DTD/svg10.dtd">
<svg version="1.0" xmlns="http://www.w3.org/2000/svg"
 width="2000.000000pt" height="2000.000000pt" viewBox="0 0 2000.000000 2000.000000"
 preserveAspectRatio="xMidYMid meet">
<metadata>
Created by potrace 1.16, written by Peter Selinger 2001-2019
</metadata>
<g transform="translate(0.000000,2000.000000) scale(0.100000,-0.100000)"
fill="#000000" stroke="none">
<path d="M10085 14703 c-109 -9 -329 -47 -457 -79 -298 -73 -719 -207 -796
-254 -33 -20 -72 -85 -72 -119 0 -11 -14 -40 -31 -65 -46 -69 -95 -183 -113
-263 -21 -96 -20 -210 4 -368 11 -71 34 -233 51 -360 33 -254 58 -373 94 -452
25 -55 99 -143 120 -143 13 0 15 -23 19 -255 4 -185 29 -350 68 -449 11 -26
13 -27 20 -10 5 13 6 8 2 -13 -4 -24 0 -37 15 -52 11 -11 16 -21 11 -23 -4 -2
-2 -9 6 -16 12 -11 14 -10 14 3 0 8 8 15 18 15 21 0 25 -27 5 -34 -21 -8 -15
-25 7 -19 14 4 20 0 20 -11 0 -9 -3 -15 -7 -15 -20 3 -24 -2 -13 -16 7 -8 21
-15 32 -15 16 0 19 5 14 25 -4 14 -2 25 3 25 14 0 19 -21 13 -57 -4 -28 -1
-33 14 -32 11 0 14 3 7 6 -20 7 -15 23 6 23 11 0 22 6 25 13 5 10 7 10 12 0 4
-9 31 -13 85 -13 l79 0 0 40 c0 22 4 40 8 40 5 0 10 51 11 113 1 61 6 114 11
115 18 6 10 22 -10 22 -11 0 -20 5 -20 11 0 7 10 9 25 7 30 -6 33 7 6 22 -14
7 -21 6 -24 -3 -3 -6 -6 -2 -6 11 -1 23 9 28 24 13 16 -16 160 -41 232 -41 76
0 165 20 233 52 59 28 130 76 130 88 0 19 -38 10 -125 -31 -141 -65 -232 -80
-335 -56 -53 12 -152 52 -137 55 10 2 24 0 30 -5 7 -4 4 0 -6 9 -13 12 -24 15
-35 9 -10 -4 -28 -5 -42 0 -22 6 -20 7 13 8 25 1 37 6 37 15 0 8 8 17 18 20 9
3 23 19 30 36 8 17 24 33 37 36 33 8 28 49 -12 89 -25 25 -33 42 -33 69 0 25
4 36 15 36 10 0 15 10 15 28 0 59 14 104 40 132 60 65 67 92 40 173 -59 180
-70 219 -70 241 0 32 -10 57 -20 51 -12 -8 -24 16 -26 50 -1 16 -7 31 -13 33
-6 2 -11 10 -11 18 0 8 -7 17 -15 20 -18 7 -20 31 -3 36 12 4 13 41 9 201 -2
59 -6 77 -17 77 -9 0 -14 11 -14 33 0 25 3 29 11 17 8 -11 12 -12 16 -2 2 6
13 12 24 12 12 0 19 7 19 20 0 13 7 20 20 20 11 0 20 4 20 9 0 16 151 11 200
-7 25 -8 49 -19 54 -24 6 -4 18 -8 28 -8 11 0 33 -7 49 -16 17 -8 40 -17 52
-20 11 -2 24 -9 28 -15 4 -6 16 -8 28 -4 15 4 21 3 19 -6 -2 -8 8 -14 24 -14
16 -1 34 -7 40 -14 11 -11 9 -13 -9 -8 -13 3 -23 2 -23 -3 0 -4 13 -10 29 -12
17 -2 28 -1 25 4 -6 9 1 6 96 -38 36 -17 102 -43 147 -59 48 -16 80 -32 76
-38 -3 -6 -1 -7 5 -3 6 4 33 0 59 -8 108 -32 204 -48 318 -53 103 -4 125 -8
155 -28 89 -59 298 -293 437 -490 69 -98 111 -175 148 -268 17 -45 36 -82 42
-84 6 -2 21 6 33 19 27 28 102 178 89 178 -5 0 -9 7 -9 15 0 9 6 12 15 9 17
-7 36 34 29 63 -3 11 3 26 15 37 12 11 21 25 21 31 0 16 -25 26 -47 19 -15 -5
-16 -4 -3 5 13 9 12 11 -6 11 -13 0 -26 12 -37 35 -14 30 -15 35 -2 35 9 0 15
-9 15 -24 0 -22 6 -26 45 -32 26 -3 42 -10 39 -16 -4 -6 -1 -9 7 -6 20 7 17
29 -6 42 -11 6 -22 14 -25 17 -10 11 -73 39 -90 39 -36 0 -90 108 -90 181 0
31 -4 39 -18 39 -14 0 -17 6 -14 33 2 22 -2 38 -12 46 -17 15 -22 71 -6 71 6
0 10 5 10 10 0 6 -17 10 -38 10 -50 0 -82 32 -82 83 0 26 -4 37 -15 37 -8 0
-15 -9 -15 -20 0 -13 -7 -20 -20 -20 -11 0 -20 4 -20 10 0 5 -17 12 -37 15
-21 4 -51 11 -67 16 -22 7 -33 5 -46 -6 -9 -8 -27 -15 -41 -14 l-24 0 24 10
24 9 -21 23 c-14 15 -22 36 -22 59 0 34 -2 37 -40 43 -38 6 -40 9 -40 41 0 27
-4 34 -20 34 -11 0 -20 5 -20 10 0 6 -8 10 -17 8 -14 -2 -19 5 -21 30 -3 31
-11 36 -58 35 -6 0 -9 8 -7 18 3 11 0 19 -6 19 -6 0 -11 7 -11 16 0 18 -28 49
-37 40 -9 -8 -34 14 -27 25 3 5 0 9 -5 9 -6 0 -11 7 -11 15 0 8 -4 15 -10 15
-5 0 -10 9 -10 20 0 11 -8 24 -17 27 -23 9 -48 33 -34 33 6 0 11 9 11 20 0 11
-4 20 -10 20 -5 0 -10 9 -10 20 0 13 -7 20 -20 20 -17 0 -20 7 -20 40 0 33 -3
40 -20 40 -18 0 -20 7 -20 66 0 67 13 94 44 94 9 0 16 8 16 20 0 11 5 20 10
20 6 0 10 9 10 20 0 11 7 20 15 20 9 0 27 11 40 25 14 13 25 31 25 40 0 8 9
15 20 15 13 0 20 7 20 20 0 13 7 20 20 20 13 0 20 -7 20 -20 0 -17 7 -20 40
-20 l40 0 0 40 c0 33 -3 40 -20 40 -11 0 -20 2 -20 5 0 12 50 55 64 55 8 0 22
7 30 16 9 8 20 13 25 10 11 -7 8 20 -4 31 -4 4 -5 2 -1 -5 8 -13 -14 -10 -74
10 -18 6 -15 7 15 3 33 -4 37 -3 22 6 -11 6 -24 12 -30 13 -7 1 -16 4 -22 8
-22 13 -195 50 -295 64 -95 12 -377 17 -485 7z m852 -129 c-3 -3 -12 -4 -19
-1 -8 3 -5 6 6 6 11 1 17 -2 13 -5z m-1637 -1563 c0 -5 3 -16 6 -25 4 -11 1
-16 -10 -16 -10 0 -16 9 -16 25 0 14 5 25 10 25 6 0 10 -4 10 -9z m2330 -306
c0 -8 -4 -15 -10 -15 -5 0 -10 7 -10 15 0 8 5 15 10 15 6 0 10 -7 10 -15z
m-2330 -568 c0 -7 -4 -6 -10 3 -6 9 -10 10 -10 3 0 -7 16 -20 35 -29 37 -17
45 -31 20 -31 -8 0 -15 7 -15 16 0 14 -2 14 -11 1 -8 -11 -12 -12 -16 -2 -2 6
-11 12 -19 12 -17 0 -18 22 -2 38 13 13 28 7 28 -11z"/>
<path d="M10980 14576 c0 -2 9 -6 20 -9 11 -3 18 -1 14 4 -5 9 -34 13 -34 5z"/>
<path d="M11023 14509 c-4 -24 -11 -29 -34 -29 -27 0 -29 -2 -29 -41 0 -41 0
-41 35 -37 23 3 35 0 35 -8 0 -20 17 -26 54 -19 28 6 33 10 28 28 -3 12 -9 28
-15 35 -6 8 -6 12 1 12 18 0 42 -12 38 -19 -9 -14 9 -29 38 -32 27 -4 30 -1
31 27 1 23 -2 31 -12 27 -7 -3 -17 5 -21 18 l-9 23 -5 -22 c-4 -12 -14 -22
-23 -22 -12 0 -15 7 -12 30 3 16 2 29 -1 29 -4 -1 -16 -1 -27 0 -17 1 -18 3
-5 11 16 10 12 12 -33 15 -24 2 -29 -3 -34 -26z m41 10 c-3 -6 0 -16 7 -21 11
-8 10 -8 -4 -4 -10 3 -23 6 -29 6 -6 0 -6 6 2 15 14 17 35 21 24 4z m-1 -46
c14 -17 13 -18 -13 -19 -25 -1 -27 1 -17 17 14 23 11 23 30 2z"/>
<path d="M11224 14442 c3 -6 0 -12 -6 -15 -7 -2 -9 -8 -5 -13 4 -5 12 -3 16 4
6 10 11 10 21 -3 11 -13 10 -15 -3 -10 -8 4 -18 1 -23 -6 -4 -8 -3 -10 4 -5 7
4 12 4 12 -1 -1 -14 -24 -39 -42 -46 -24 -9 -23 -23 2 -30 11 -3 20 -10 20
-16 0 -16 -16 -14 -34 4 -8 8 -26 15 -40 15 -24 0 -26 -4 -26 -40 0 -37 2 -40
29 -40 20 0 30 6 34 20 3 12 14 20 26 20 25 0 82 -51 64 -57 -20 -7 -15 -23 7
-23 11 0 20 5 20 10 0 6 9 10 20 10 16 0 20 -7 20 -30 0 -27 -3 -30 -30 -30
-28 0 -30 -2 -30 -40 l0 -40 40 0 c33 0 40 -3 40 -20 0 -18 7 -20 70 -20 63 0
70 -2 70 -20 0 -13 7 -20 20 -20 11 0 20 -6 21 -12 0 -7 4 -4 9 7 l9 20 0 -20
c1 -13 4 -16 9 -8 5 8 12 8 25 -2 18 -13 18 -13 0 -18 -10 -3 3 -5 30 -6 39
-1 47 -4 47 -20 0 -11 4 -22 9 -26 14 -8 41 -65 41 -84 0 -17 33 -51 49 -51
15 0 21 31 10 52 -8 15 -8 19 0 14 6 -4 11 -2 11 4 0 7 -9 14 -20 17 -19 5
-55 61 -45 71 3 3 5 -1 5 -8 0 -7 3 -11 6 -8 7 8 -18 48 -30 48 -4 0 -2 -8 5
-17 12 -15 12 -16 -4 -10 -10 4 -20 7 -21 7 -1 0 -1 14 0 31 1 17 0 28 -4 25
-3 -3 -14 1 -24 11 -10 9 -21 13 -25 9 -4 -4 -1 -11 6 -16 10 -6 7 -8 -11 -7
-21 2 -24 7 -23 36 1 27 -7 42 -34 68 -19 18 -31 36 -27 40 3 4 22 -10 41 -30
19 -20 38 -37 42 -37 4 0 -11 18 -32 40 -21 22 -45 40 -53 40 -7 0 -11 4 -8 8
2 4 0 14 -6 22 -8 12 -9 12 -4 -2 9 -30 -27 -21 -61 15 -26 28 -29 35 -16 43
12 8 9 15 -21 42 -20 18 -36 28 -36 22 0 -5 -5 -10 -11 -10 -6 0 -9 6 -6 14 5
13 -31 56 -47 56 -5 0 3 -9 18 -21 18 -14 24 -25 17 -33 -6 -7 -5 -17 3 -29
16 -21 26 -22 26 -1 0 14 2 15 17 3 15 -13 15 -14 0 -17 -20 -4 -22 -18 -4
-25 6 -2 0 -4 -15 -3 -14 0 -24 4 -22 8 11 18 -18 48 -46 48 -17 0 -30 3 -31
8 0 4 -2 18 -5 31 -4 23 -4 23 23 6 28 -18 28 -18 11 2 -10 11 -18 26 -18 34
0 11 -2 12 -9 1 -7 -11 -9 -11 -14 2 -3 8 -2 16 3 18 5 2 -7 13 -26 26 -20 13
-33 19 -30 14z m56 -172 c0 -5 -4 -10 -10 -10 -5 0 -10 5 -10 10 0 6 5 10 10
10 6 0 10 -4 10 -10z m160 -10 c0 -5 -4 -10 -10 -10 -5 0 -10 5 -10 10 0 6 5
10 10 10 6 0 10 -4 10 -10z m124 -179 c-7 -7 -44 31 -44 46 0 8 10 2 24 -14
13 -15 22 -30 20 -32z m-84 -11 c0 -5 -13 -10 -30 -10 -16 0 -30 5 -30 10 0 6
14 10 30 10 17 0 30 -4 30 -10z"/>
<path d="M11158 14373 c6 -2 18 -2 25 0 6 3 1 5 -13 5 -14 0 -19 -2 -12 -5z"/>
<path d="M11200 14245 c0 -16 6 -25 16 -25 11 0 14 5 10 16 -3 9 -6 20 -6 25
0 5 -4 9 -10 9 -5 0 -10 -11 -10 -25z"/>
<path d="M11636 14057 c3 -10 9 -15 12 -12 3 3 0 11 -7 18 -10 9 -11 8 -5 -6z"/>
<path d="M11610 14046 c0 -9 5 -16 10 -16 6 0 10 4 10 9 0 6 -4 13 -10 16 -5
3 -10 -1 -10 -9z"/>
<path d="M11440 13960 c0 -33 3 -40 20 -40 11 0 20 -4 20 -10 0 -5 7 -10 15
-10 8 0 15 5 15 10 0 6 -7 10 -15 10 -8 0 -15 9 -15 20 0 13 7 20 20 20 11 0
20 3 20 6 0 14 -31 34 -54 34 -24 0 -26 -4 -26 -40z"/>
<path d="M11521 13895 l0 -55 40 0 c28 0 39 4 39 15 0 19 -31 56 -41 49 -5 -3
-11 7 -15 21 -11 43 -23 28 -23 -30z"/>
<path d="M11672 13768 c4 -43 33 -46 33 -3 0 21 -5 31 -18 33 -15 3 -18 -2
-15 -30z"/>
<path d="M13414 13758 c-25 -23 -57 -62 -72 -87 -25 -43 -27 -55 -30 -186 -2
-77 0 -136 4 -132 5 4 11 63 15 131 7 146 25 193 101 269 58 58 44 63 -18 5z"/>
<path d="M11777 13766 c-7 -17 1 -26 24 -26 18 0 33 26 19 35 -4 3 -11 -1 -13
-7 -4 -10 -6 -10 -6 0 -1 16 -18 15 -24 -2z"/>
<path d="M10850 13740 c0 -11 7 -20 15 -20 8 0 15 9 15 20 0 11 -7 20 -15 20
-8 0 -15 -9 -15 -20z"/>
<path d="M11841 13715 c1 -19 18 -51 18 -35 0 8 -4 22 -9 30 -5 8 -9 11 -9 5z"/>
<path d="M11760 13640 c0 -39 1 -40 35 -40 28 0 35 -4 35 -19 0 -24 16 -36 23
-19 3 7 6 1 6 -14 1 -33 -14 -44 -28 -21 -6 10 -11 12 -11 6 0 -7 -9 -13 -20
-13 -17 0 -20 -7 -20 -40 0 -33 3 -40 20 -40 16 0 20 -7 20 -30 0 -20 5 -30
15 -30 14 0 14 4 0 37 -20 46 -13 75 20 93 14 7 25 22 25 32 0 11 5 16 10 13
14 -9 13 3 -7 58 -17 48 -32 61 -34 30 0 -12 -4 -8 -11 10 -8 22 -16 27 -44
27 -33 0 -34 -1 -34 -40z m117 -62 c-3 -8 -6 -5 -6 6 -1 11 2 17 5 13 3 -3 4
-12 1 -19z"/>
<path d="M13587 13652 c-55 -58 -26 -140 54 -148 38 -4 42 -3 25 8 -48 33 -58
49 -54 91 3 23 8 50 12 60 12 26 -7 21 -37 -11z"/>
<path d="M13853 13658 c-11 -13 -20 -33 -18 -45 1 -12 -3 -19 -8 -16 -5 3 -7
-4 -3 -16 3 -11 8 -29 11 -39 7 -24 46 -42 88 -42 l32 1 -31 13 c-59 26 -83
95 -48 144 20 29 3 29 -23 0z"/>
<path d="M14110 13662 c-34 -27 -38 -92 -8 -125 25 -28 66 -41 87 -28 9 6 6
10 -13 15 -26 6 -56 50 -56 81 0 9 7 29 15 45 18 34 8 38 -25 12z"/>
<path d="M4267 13435 c-73 -69 -101 -162 -90 -301 3 -47 8 -82 10 -80 3 2 6
55 7 118 2 128 17 174 82 253 44 54 41 57 -9 10z"/>
<path d="M11916 13447 c3 -10 9 -15 12 -12 3 3 0 11 -7 18 -10 9 -11 8 -5 -6z"/>
<path d="M11840 13360 c0 -5 5 -10 11 -10 5 0 7 5 4 10 -3 6 -8 10 -11 10 -2
0 -4 -4 -4 -10z"/>
<path d="M4462 13344 c-16 -11 -22 -25 -22 -54 0 -21 3 -46 6 -55 8 -20 56
-45 86 -44 23 0 23 0 -2 12 -54 25 -76 88 -50 138 13 23 11 23 -18 3z"/>
<path d="M4708 13329 c-11 -22 -13 -41 -8 -66 5 -19 10 -36 12 -37 38 -25 61
-36 75 -36 16 1 16 2 -2 12 -61 33 -82 87 -55 139 6 10 7 19 2 19 -5 0 -16
-14 -24 -31z"/>
<path d="M4965 13336 c-34 -51 0 -136 54 -136 l26 1 -27 16 c-43 27 -63 94
-36 121 6 6 9 14 6 18 -4 3 -14 -6 -23 -20z"/>
<path d="M11737 13335 c-3 -16 3 -35 14 -49 11 -13 19 -29 19 -35 0 -6 5 -11
10 -11 6 0 10 -7 10 -16 0 -8 4 -13 9 -10 5 4 12 0 14 -6 4 -10 8 -9 16 2 8
12 10 8 7 -17 -6 -41 3 -75 18 -70 6 3 17 -1 23 -8 9 -10 9 -14 -2 -19 -21 -8
-19 -28 3 -22 9 3 43 -7 75 -23 44 -21 53 -23 40 -9 -9 10 -30 22 -47 27 -25
7 -27 9 -8 10 15 1 22 7 22 20 0 11 5 21 12 23 14 5 -21 48 -39 48 -16 0 -17
26 -2 35 5 4 19 -1 30 -11 24 -22 24 -19 -6 40 -14 27 -25 55 -25 63 0 7 -5
13 -11 13 -5 0 -7 -5 -3 -11 3 -6 1 -14 -5 -18 -12 -8 -18 -132 -6 -151 3 -5
-1 -10 -9 -10 -9 0 -18 12 -21 28 -3 15 -10 41 -15 58 -6 17 -10 41 -11 55
l-1 24 -8 -25 c-8 -24 -8 -24 -9 -2 -1 12 -7 22 -16 22 -8 0 -15 9 -15 20 0
13 -7 20 -20 20 -13 0 -20 7 -20 20 0 29 -17 25 -23 -5z m190 -97 c-3 -8 -6
-5 -6 6 -1 11 2 17 5 13 3 -3 4 -12 1 -19z"/>
<path d="M11605 13320 c5 -14 2 -20 -9 -20 -9 0 -16 -9 -16 -20 0 -14 -7 -20
-24 -20 -30 0 -56 -9 -56 -20 0 -5 13 -3 30 3 34 13 49 4 30 -18 -19 -23 6
-19 29 4 11 11 22 17 25 14 3 -4 6 6 6 21 0 19 6 29 20 33 11 3 20 14 20 24 0
15 -7 19 -31 19 -26 0 -29 -3 -24 -20z"/>
<path d="M11941 13295 c1 -19 18 -51 18 -35 0 8 -4 22 -9 30 -5 8 -9 11 -9 5z"/>
<path d="M11971 13234 c0 -11 3 -14 6 -6 3 7 2 16 -1 19 -3 4 -6 -2 -5 -13z"/>
<path d="M11662 13144 c1 -9 9 -19 16 -22 9 -3 13 2 10 14 -1 9 -9 19 -16 22
-9 3 -13 -2 -10 -14z"/>
<path d="M11485 13130 c-3 -5 -1 -10 4 -10 6 0 11 5 11 10 0 6 -2 10 -4 10 -3
0 -8 -4 -11 -10z"/>
<path d="M11985 13080 c-3 -5 -1 -10 4 -10 6 0 11 5 11 10 0 6 -2 10 -4 10 -3
0 -8 -4 -11 -10z"/>
<path d="M11595 13072 c6 -4 11 -14 11 -23 1 -14 -4 -15 -27 -9 -16 5 -29 5
-29 0 0 -17 13 -40 22 -40 6 0 4 8 -3 18 -13 15 -12 16 3 4 10 -8 16 -19 15
-24 -1 -6 3 -12 10 -15 7 -3 9 3 6 16 -3 12 -1 21 5 21 6 0 10 14 10 30 -1 21
-6 30 -17 30 -9 0 -12 -3 -6 -8z"/>
<path d="M11625 13030 c0 -16 3 -30 8 -30 4 0 7 14 7 30 0 17 -3 30 -7 30 -5
0 -8 -13 -8 -30z"/>
<path d="M9752 13023 c2 -10 9 -17 16 -16 6 2 23 -2 37 -7 38 -14 30 -5 -16
19 -37 20 -40 20 -37 4z"/>
<path d="M11640 12919 c0 -5 5 -7 10 -4 6 3 10 8 10 11 0 2 -4 4 -10 4 -5 0
-10 -5 -10 -11z"/>
<path d="M11718 12857 c-3 -19 -2 -25 4 -19 6 6 8 18 6 28 -3 14 -5 12 -10 -9z"/>
<path d="M9978 12856 c-44 -33 -42 -98 4 -130 49 -35 113 -9 124 51 12 63 -77
118 -128 79z"/>
<path d="M11812 12374 c-7 -8 -12 -20 -9 -27 2 -7 9 -2 16 11 15 28 11 36 -7
16z"/>
<path d="M11786 12315 c-9 -26 -7 -32 5 -12 6 10 9 21 6 23 -2 3 -7 -2 -11
-11z"/>
<path d="M6640 12163 c9 -13 20 -18 37 -15 29 5 41 22 16 22 -10 0 -29 3 -41
7 -22 5 -23 4 -12 -14z"/>
<path d="M5570 11839 c0 -5 5 -7 10 -4 6 3 10 8 10 11 0 2 -4 4 -10 4 -5 0
-10 -5 -10 -11z"/>
<path d="M9130 11632 c0 -12 19 -26 26 -19 2 2 -2 10 -11 17 -9 8 -15 8 -15 2z"/>
<path d="M9170 11621 c0 -12 5 -21 10 -21 6 0 10 6 10 14 0 8 -4 18 -10 21 -5
3 -10 -3 -10 -14z"/>
<path d="M9198 11578 c5 -5 16 -8 23 -6 8 3 3 7 -10 11 -17 4 -21 3 -13 -5z"/>
<path d="M9225 11530 c10 -11 24 -20 31 -20 7 0 15 -6 17 -12 4 -10 6 -10 6 0
1 8 -8 16 -19 19 -11 3 -20 9 -20 13 0 4 -8 11 -17 14 -15 6 -15 4 2 -14z"/>
<path d="M9388 11418 c5 -5 16 -8 23 -6 8 3 3 7 -10 11 -17 4 -21 3 -13 -5z"/>
<path d="M9478 11383 c7 -3 16 -2 19 1 4 3 -2 6 -13 5 -11 0 -14 -3 -6 -6z"/>
<path d="M9618 11353 c6 -2 18 -2 25 0 6 3 1 5 -13 5 -14 0 -19 -2 -12 -5z"/>
<path d="M9775 11349 c-17 -6 -17 -8 -3 -8 10 -1 20 -11 22 -23 9 -45 15 -324
8 -363 l-7 -40 -65 -7 c-151 -17 -605 -125 -761 -181 -205 -74 -467 -217 -654
-357 -195 -145 -441 -417 -559 -618 -6 -10 53 -12 296 -12 375 1 521 -15 643
-71 137 -63 181 -168 255 -607 10 -64 21 -127 24 -140 3 -13 10 -60 16 -105 7
-45 16 -95 21 -112 5 -16 11 -43 13 -60 7 -59 47 -292 71 -420 13 -71 26 -143
28 -160 3 -16 19 -109 36 -205 16 -96 38 -220 47 -275 22 -132 22 -133 35
-115 7 11 8 3 4 -27 -4 -23 -3 -63 1 -90 6 -39 9 -44 16 -28 6 15 7 12 3 -12
-2 -18 0 -33 5 -33 6 0 10 -5 10 -11 0 -5 -4 -7 -10 -4 -5 3 -10 2 -10 -4 0
-5 5 -13 10 -16 6 -4 8 -11 5 -16 -4 -5 33 -9 90 -9 57 0 94 4 90 9 -3 5 9 12
27 14 24 3 19 4 -17 5 -38 1 -46 -1 -35 -9 11 -8 1 -9 -35 -4 -27 4 -51 11
-53 16 -2 5 -12 9 -22 9 -10 0 -22 5 -25 10 -4 6 6 10 22 10 24 1 26 2 10 11
-24 14 -12 29 24 29 34 0 41 29 9 37 -16 4 -20 14 -20 44 0 37 2 39 30 39 l30
0 0 120 0 120 35 0 c33 0 35 2 35 34 0 47 9 66 31 66 17 0 19 8 19 70 0 63 2
70 20 70 17 0 20 7 20 40 0 22 5 40 10 40 6 0 10 18 10 40 0 38 2 40 30 40
l30 0 0 80 c0 47 4 80 10 80 6 0 10 18 10 40 0 38 2 40 30 40 28 0 30 2 30 40
0 22 5 40 10 40 6 0 10 18 10 40 0 22 5 40 10 40 6 0 10 13 10 28 0 16 8 34
20 42 14 10 20 26 20 52 0 31 4 38 20 38 15 0 20 7 20 28 0 16 8 34 20 42 11
8 20 26 20 40 0 14 9 32 20 40 11 8 20 22 20 32 0 11 7 18 20 18 17 0 20 7 20
40 0 22 5 40 10 40 6 0 10 9 10 20 0 11 5 20 10 20 6 0 10 9 10 20 0 11 5 20
10 20 6 0 10 7 10 16 0 20 24 44 44 44 9 0 16 5 16 10 0 6 -14 10 -31 10 l-31
0 27 31 c14 18 29 45 32 60 3 16 9 29 14 29 5 0 9 36 9 80 0 47 4 80 10 80 6
0 10 18 10 40 0 22 -4 40 -10 40 -5 0 -10 9 -10 20 0 13 7 20 20 20 16 0 20 7
20 36 0 27 7 43 31 65 28 26 83 49 118 49 8 0 11 6 7 15 -3 10 1 15 13 15 29
0 51 11 51 25 0 15 22 25 56 25 19 0 24 5 24 25 0 18 5 25 20 25 13 0 20 7 20
20 0 11 5 20 10 20 6 0 10 9 10 20 0 11 5 20 10 20 6 0 10 7 10 15 0 17 43 65
58 65 12 0 22 100 22 221 0 59 4 99 10 99 6 0 10 18 10 40 0 22 -4 40 -10 40
-5 0 -10 9 -10 20 0 11 -4 20 -10 20 -5 0 -10 9 -10 20 0 11 -4 20 -10 20 -5
0 -10 9 -10 20 0 13 -7 20 -20 20 -17 0 -20 7 -20 40 0 22 -4 40 -10 40 -5 0
-10 11 -10 24 0 17 -5 23 -17 21 -19 -3 -43 12 -43 26 0 5 9 9 20 9 11 0 20 6
20 14 0 16 -70 32 -79 18 -6 -9 -53 -15 -213 -28 -74 -6 -137 0 -124 13 6 6
-25 27 -56 39 -22 8 -23 20 -2 28 9 3 12 11 8 18 -16 26 2 212 22 233 9 8 18
56 24 126 5 62 13 115 17 118 5 3 14 22 21 41 27 70 28 68 -25 74 -26 4 -89
13 -140 22 -50 9 -96 13 -102 10 -5 -4 -16 2 -23 12 -9 14 -19 17 -33 11z
m168 -746 c-7 -2 -19 -2 -25 0 -7 3 -2 5 12 5 14 0 19 -2 13 -5z m50 0 c-7 -2
-19 -2 -25 0 -7 3 -2 5 12 5 14 0 19 -2 13 -5z m7 -1553 c0 -5 -5 -10 -11 -10
-5 0 -7 5 -4 10 3 6 8 10 11 10 2 0 4 -4 4 -10z m-773 -1492 c-3 -8 -6 -5 -6
6 -1 11 2 17 5 13 3 -3 4 -12 1 -19z m10 -60 c-3 -8 -6 -5 -6 6 -1 11 2 17 5
13 3 -3 4 -12 1 -19z m24 -109 l-11 -34 5 34 c3 18 6 48 7 65 l1 31 4 -31 c2
-18 -1 -47 -6 -65z"/>
<path d="M10520 10650 c0 -12 24 -12 60 0 21 7 19 8 -17 9 -24 1 -43 -3 -43
-9z"/>
<path d="M11889 10323 c-26 -3 -38 -10 -42 -24 -3 -11 -14 -19 -25 -19 -12 0
-23 -9 -27 -20 -3 -11 -12 -20 -20 -20 -8 0 -16 -17 -20 -40 -4 -22 -11 -40
-16 -40 -5 0 -9 -20 -9 -44 0 -25 -4 -47 -9 -50 -5 -3 -11 -23 -15 -43 -6 -45
-21 -129 -35 -198 -6 -27 -15 -77 -20 -110 -5 -33 -14 -78 -20 -100 -5 -22
-17 -92 -27 -155 -14 -99 -36 -209 -74 -375 -35 -152 -52 -433 -39 -625 6 -74
14 -145 19 -158 6 -13 10 -33 10 -45 0 -31 27 -67 45 -61 13 5 20 -6 16 -28 0
-4 17 -42 38 -85 37 -72 38 -78 20 -81 -24 -4 -19 -30 17 -83 13 -19 24 -46
24 -60 0 -19 2 -21 10 -9 7 11 10 8 10 -16 0 -17 9 -41 20 -54 11 -13 20 -27
20 -32 0 -4 7 -8 15 -8 8 0 15 -9 15 -20 0 -13 7 -20 20 -20 13 0 20 7 20 20
0 17 10 29 69 81 9 8 23 43 31 77 10 49 17 62 32 62 13 0 20 9 25 30 3 17 12
30 19 30 8 0 14 6 14 14 0 8 9 17 19 21 12 3 21 19 25 39 4 19 13 39 21 46 8
7 15 18 15 25 0 7 6 18 14 24 11 9 20 4 45 -26 17 -21 31 -43 31 -49 0 -7 4
-14 8 -16 4 -1 39 -47 76 -100 76 -110 162 -188 206 -188 12 0 -14 52 -68 135
-49 75 -65 141 -58 243 8 132 14 154 57 202 29 33 37 49 33 66 -4 15 -2 24 6
24 6 0 8 -5 4 -12 -4 -7 -3 -8 4 -4 9 5 9 13 2 26 -7 13 -7 21 0 25 8 5 7 11
-1 21 -8 10 -8 14 0 14 6 0 11 7 11 15 0 8 -3 15 -7 15 -9 -1 -117 -144 -138
-182 -39 -73 -45 -82 -45 -72 0 16 30 88 40 94 4 3 14 21 24 40 23 49 113 161
200 250 74 75 74 76 53 93 -12 9 -17 17 -11 17 6 0 20 9 32 20 26 24 30 81 7
104 -8 8 -15 19 -15 25 0 17 -192 401 -201 401 -5 0 -9 11 -9 25 0 14 -4 25
-10 25 -5 0 -10 6 -10 14 0 8 -6 21 -13 28 -23 24 -57 89 -52 99 4 5 -1 9 -9
9 -11 0 -16 9 -16 30 0 20 -8 35 -25 46 -14 9 -25 26 -25 38 0 12 -9 29 -20
39 -11 9 -20 26 -20 37 0 11 -4 20 -10 20 -5 0 -10 7 -10 15 0 8 -7 15 -16 15
-19 0 -44 24 -44 42 0 7 -6 22 -14 33 -15 22 -10 195 5 195 5 0 9 41 9 90 0
53 -4 90 -10 90 -5 0 -10 9 -10 20 0 13 -7 20 -20 20 -13 0 -20 7 -20 19 0 28
-46 35 -151 24z m691 -1563 c0 -5 -4 -10 -10 -10 -5 0 -10 5 -10 10 0 6 5 10
10 10 6 0 10 -4 10 -10z m-333 -502 c-3 -8 -6 -5 -6 6 -1 11 2 17 5 13 3 -3 4
-12 1 -19z"/>
<path d="M10640 10200 c0 -33 3 -40 20 -40 17 0 20 7 20 40 0 33 -3 40 -20 40
-17 0 -20 -7 -20 -40z"/>
<path d="M14840 9790 c-6 -11 -14 -46 -18 -77 -7 -58 -7 -58 -71 -100 -49 -32
-69 -40 -82 -32 -27 14 -29 11 -12 -19 19 -33 50 -33 79 -1 9 10 23 19 29 19
7 0 18 7 25 15 7 8 16 13 20 10 14 -9 41 7 36 21 -3 8 -1 14 4 14 6 0 10 33
11 73 0 49 3 66 9 52 10 -23 12 -10 4 23 -8 27 -20 28 -34 2z"/>
<path d="M15249 9800 c-9 -5 -28 -27 -44 -50 -15 -22 -36 -40 -46 -40 -11 0
-19 -4 -19 -8 0 -12 23 -32 37 -32 20 0 76 57 68 69 -3 6 1 11 9 11 20 0 27
14 19 38 -6 15 -12 18 -24 12z"/>
<path d="M4171 9666 c-13 -14 -22 -29 -20 -33 2 -5 17 6 32 24 33 38 22 45
-12 9z"/>
<path d="M14506 9573 c-19 -25 -19 -26 4 -77 34 -77 34 -86 1 -157 -34 -76
-40 -81 -106 -97 -94 -24 -100 -76 -16 -132 62 -41 66 -49 76 -145 6 -67 5
-71 -20 -95 -15 -14 -36 -38 -47 -53 -17 -24 -18 -32 -8 -57 11 -27 37 -46 48
-35 3 3 1 15 -5 28 -9 18 -6 28 13 52 12 16 20 33 17 38 -3 6 -1 7 4 4 6 -4
18 2 28 13 14 16 16 30 10 97 -4 43 -12 89 -17 103 -10 25 -41 60 -55 60 -4 1
-20 11 -35 23 -31 25 -35 67 -6 67 10 0 27 6 38 13 17 10 22 9 29 -2 7 -10 15
-7 40 15 17 15 31 31 31 36 0 4 13 36 29 70 31 63 31 67 -1 135 -11 23 -19 60
-20 82 0 48 -6 50 -32 14z"/>
<path d="M15530 9556 c0 -14 24 -29 33 -19 3 3 3 11 0 19 -7 18 -33 18 -33 0z"/>
<path d="M15103 9243 c-46 -6 -41 -17 8 -21 143 -10 178 -211 50 -286 -29 -17
-39 -18 -75 -8 -22 6 -42 9 -44 8 -8 -9 71 -36 107 -38 36 -1 45 4 81 43 45
49 55 83 48 165 -4 48 -10 61 -44 95 -40 40 -72 50 -131 42z"/>
<path d="M15018 9204 c-16 -8 -28 -21 -28 -29 0 -8 -4 -15 -10 -15 -5 0 -10
-7 -10 -16 0 -12 7 -8 22 12 13 16 32 37 43 46 25 21 19 22 -17 2z"/>
<path d="M13718 8943 c10 -16 22 -37 27 -48 4 -12 9 -15 12 -8 7 18 -27 83
-44 83 -11 0 -11 -6 5 -27z"/>
<path d="M14540 8747 c0 -7 27 -42 60 -77 l61 -65 -7 -81 c-6 -76 -5 -83 14
-93 11 -6 22 -11 24 -11 2 0 3 44 3 99 l0 98 -39 44 c-22 24 -43 46 -48 47 -4
2 -8 10 -8 18 0 8 -9 14 -20 14 -11 0 -20 5 -20 10 0 6 -4 10 -10 10 -5 0 -10
-6 -10 -13z"/>
<path d="M14840 8491 c0 -4 33 -17 73 -27 l72 -19 35 -70 c19 -38 39 -68 45
-65 24 12 -23 139 -55 147 -11 3 -20 9 -20 14 0 5 -12 7 -26 5 -15 -3 -39 1
-55 9 -31 17 -69 20 -69 6z"/>
<path d="M15350 8491 c0 -9 91 -71 103 -71 12 0 8 31 -6 44 -30 31 -97 49 -97
27z"/>
<path d="M12500 8300 c0 -11 -4 -20 -10 -20 -5 0 -10 -13 -10 -30 0 -16 5 -30
10 -30 6 0 10 -13 10 -30 0 -16 4 -30 9 -30 5 0 12 -18 16 -40 4 -25 12 -40
21 -40 8 0 14 -8 14 -18 0 -11 9 -29 19 -41 11 -12 22 -40 26 -62 4 -24 12
-39 21 -39 8 0 14 -9 14 -19 0 -11 5 -21 11 -23 11 -4 58 -131 59 -160 0 -14
6 -16 33 -12 87 17 248 96 309 152 48 45 49 62 3 62 -19 0 -63 8 -96 17 -46
13 -57 19 -43 24 16 6 14 8 -7 8 -63 2 -89 13 -89 38 0 18 -7 25 -30 30 -16 3
-30 11 -30 17 0 6 -9 18 -20 26 -11 8 -20 20 -20 27 0 7 -9 13 -20 13 -17 0
-20 7 -20 40 l0 40 -60 0 c-53 0 -60 2 -60 20 0 13 7 20 20 20 13 0 20 7 20
20 0 13 -7 20 -18 20 -10 0 -24 9 -32 20 -8 11 -22 20 -32 20 -11 0 -18 -7
-18 -20z"/>
<path d="M6362 8120 c-77 -35 -115 -95 -130 -206 -11 -80 1 -165 33 -225 10
-19 25 -49 34 -67 10 -18 20 -29 24 -26 12 12 8 30 -13 54 -12 13 -18 30 -16
37 3 7 1 13 -5 13 -7 0 -9 10 -5 25 4 14 2 25 -4 25 -15 0 -11 72 5 94 8 11
15 28 15 38 0 10 5 18 10 18 6 0 10 11 10 25 0 14 4 33 9 43 5 9 12 25 15 36
5 13 13 17 31 14 17 -4 25 -1 25 8 0 7 12 27 28 43 55 60 55 61 28 61 -13 0
-30 2 -38 5 -7 2 -32 -4 -56 -15z"/>
<path d="M6350 7670 c0 -5 5 -10 10 -10 6 0 10 5 10 10 0 6 -4 10 -10 10 -5 0
-10 -4 -10 -10z"/>
<path d="M6355 7540 c3 -5 10 -10 16 -10 5 0 9 5 9 10 0 6 -7 10 -16 10 -8 0
-12 -4 -9 -10z"/>
<path d="M11580 7260 c-14 -4 -43 -9 -65 -9 -30 -1 -36 -4 -25 -11 11 -7 2
-10 -31 -10 -38 0 -50 -4 -62 -24 -11 -16 -29 -25 -62 -29 -25 -4 -55 -15 -66
-26 -23 -21 -82 -34 -116 -25 -14 4 -23 2 -23 -5 0 -6 7 -11 15 -11 8 0 15 -4
15 -10 0 -5 -18 -10 -40 -10 -22 0 -40 -4 -40 -10 0 -5 -9 -10 -20 -10 -11 0
-20 -7 -20 -15 0 -8 -9 -15 -20 -15 -13 0 -20 -7 -20 -20 0 -17 -7 -20 -47
-21 -27 0 -42 -3 -36 -6 23 -9 -9 -29 -56 -36 -59 -7 -71 -28 -26 -44 64 -22
236 -46 294 -40 40 3 85 18 144 47 48 24 87 46 87 49 0 4 21 18 48 31 41 22
83 52 145 105 9 8 24 15 32 15 8 0 15 5 15 10 0 6 7 10 15 10 8 0 20 9 27 20
7 11 17 20 23 20 5 0 18 7 29 15 18 13 17 15 -12 45 -31 30 -55 35 -102 20z"/>
<path d="M3868 6328 c-26 -21 -50 -66 -39 -72 5 -4 24 14 41 39 30 44 30 57
-2 33z"/>
<path d="M3692 6304 c-34 -24 -29 -67 15 -115 l37 -40 -28 -56 c-24 -45 -27
-59 -17 -79 12 -26 34 -34 24 -8 -8 21 17 95 30 87 6 -4 8 0 4 10 -4 10 0 20
9 25 14 8 14 12 3 30 -7 11 -23 26 -36 33 -28 15 -41 73 -24 102 16 25 10 30
-17 11z"/>
<path d="M9488 6282 c-32 -15 -58 -32 -58 -39 0 -19 12 -16 43 11 16 14 42 28
58 31 16 4 31 11 34 16 10 15 -17 9 -77 -19z"/>
<path d="M3870 6035 c7 -8 17 -15 22 -15 5 0 3 7 -6 15 -8 8 -18 15 -22 15 -3
0 -1 -7 6 -15z"/>
<path d="M9950 5952 c0 -4 25 -8 55 -10 34 -2 55 1 55 7 0 7 -23 11 -55 11
-30 0 -55 -3 -55 -8z"/>
<path d="M9898 5943 c7 -3 16 -2 19 1 4 3 -2 6 -13 5 -11 0 -14 -3 -6 -6z"/>
<path d="M10085 5940 c3 -5 17 -10 31 -10 14 0 22 4 19 10 -3 6 -17 10 -31 10
-14 0 -22 -4 -19 -10z"/>
<path d="M10169 5927 c5 -5 19 -7 32 -5 20 3 19 5 -9 9 -20 3 -29 2 -23 -4z"/>
<path d="M10317 5889 c7 -7 15 -10 18 -7 3 3 -2 9 -12 12 -14 6 -15 5 -6 -5z"/>
<path d="M7257 4333 c-4 -3 -7 -11 -7 -17 0 -6 5 -5 12 2 6 6 9 14 7 17 -3 3
-9 2 -12 -2z"/>
</g>
</svg>
